<svg width="93" height="93" viewBox="0 0 93 93" fill="none" xmlns="http://www.w3.org/2000/svg">
<path d="M42.04 84.1506C52.9929 84.1506 58.8801 70.8702 51.35 63.0662L51.213 62.9294L34.7837 46.5L18.3543 62.9294L18.2174 63.0662C10.5504 70.8702 16.5745 84.1506 27.5274 84.1506H42.04Z" fill="#F8F8F8"/>
<path d="M27.4668 8.8494C16.5139 8.8494 10.6267 22.1298 18.1568 29.9338L18.2937 30.0706L34.7231 46.5L51.1524 30.0706L51.2893 29.9338C58.9564 22.1298 52.9322 8.8494 41.9793 8.8494H27.4668Z" fill="#F8F8F8"/>
<path d="M78.2268 39.2134C78.2268 28.2605 64.9464 22.3733 57.1425 29.9034L57.0056 30.0403L40.5762 46.4697L57.0056 62.899L57.1425 63.0359C64.9464 70.703 78.2268 64.6789 78.2268 53.726V39.2134Z" fill="#DBDBDB"/>
</svg>
